<?xml version="1.0" standalone="no"?><!DOCTYPE svg PUBLIC "-//W3C//DTD SVG 1.1//EN" "http://www.w3.org/Graphics/SVG/1.1/DTD/svg11.dtd"><svg t="1709383853532" class="icon" viewBox="0 0 1024 1024" version="1.1" xmlns="http://www.w3.org/2000/svg" p-id="1492" xmlns:xlink="http://www.w3.org/1999/xlink" width="200" height="200"><path d="M118.153846 118.153846v748.307692h393.846154v-94.523076H212.676923V212.676923h598.646154v299.323077h94.523077V118.153846z" fill="#999999" p-id="1493"></path><path d="M283.569231 334.769231h452.923077v55.138461H283.569231zM283.569231 464.738462h452.923077v55.138461H283.569231zM283.569231 594.707692h228.430769v55.138462H283.569231zM748.307692 590.769231c-87.04 0-157.538462 70.498462-157.538461 157.538461s70.498462 157.538462 157.538461 157.538462 157.538462-70.498462 157.538462-157.538462-70.498462-157.538462-157.538462-157.538461z m0 266.24c-59.864615 0-108.701538-48.443077-108.701538-108.701539 0-59.864615 48.443077-108.701538 108.701538-108.701538s108.701538 48.443077 108.701539 108.701538c0 59.864615-48.836923 108.701538-108.701539 108.701539z" fill="#999999" p-id="1494"></path><path d="M772.726154 671.113846h-48.836923v101.612308h76.8v-48.836923h-27.963077z" fill="#999999" p-id="1495"></path></svg>